<?xml version="1.0" encoding="utf-8"?>
<!-- Generator: Adobe Illustrator 16.0.0, SVG Export Plug-In . SVG Version: 6.00 Build 0)  -->
<!DOCTYPE svg PUBLIC "-//W3C//DTD SVG 1.1//EN" "http://www.w3.org/Graphics/SVG/1.1/DTD/svg11.dtd">
<svg version="1.1" xmlns="http://www.w3.org/2000/svg" xmlns:xlink="http://www.w3.org/1999/xlink" x="0px" y="0px" width="64px"
	 height="64px" viewBox="0 0 64 64" enable-background="new 0 0 64 64" xml:space="preserve">
<g id="base">
	<rect x="-1" y="-1" display="none" fill="#5B5D5E" width="66" height="67"/>
	<g>
		<polygon fill="#FFFFFF" points="62.9688,31.4756 62.9688,30.4263 61.9355,30.4263 61.9355,29.377 60.9023,29.377 60.9023,28.3276 
			57.8066,28.3276 57.8066,27.2788 46.4512,27.2788 46.4512,26.2295 45.4199,26.2295 45.4199,25.1807 44.3867,25.1807 
			44.3867,24.1309 43.3555,24.1309 43.3555,23.082 42.3223,23.082 42.3223,22.0327 41.291,22.0327 41.291,20.9834 42.3223,20.9834 
			42.3223,18.8853 38.1934,18.8853 38.1934,17.8364 37.1611,17.8364 37.1611,16.7866 36.1289,16.7866 36.1289,15.7378 
			35.0977,15.7378 35.0977,14.6885 34.0645,14.6885 34.0645,13.6392 33.0313,13.6392 33.0313,12.5903 34.0645,12.5903 
			34.0645,10.4922 29.9355,10.4922 29.9355,9.4424 28.9023,9.4424 28.9023,8.3936 27.8711,8.3936 27.8711,7.3442 26.8398,7.3442 
			26.8398,6.2949 25.8066,6.2949 25.8066,5.2461 24.7734,5.2461 24.7734,4.1968 23.7422,4.1968 23.7422,3.1475 22.709,3.1475 
			22.709,2.0981 21.6777,2.0981 21.6777,1.0493 20.6445,1.0493 20.6445,0 16.5156,0 16.5156,2.0981 17.5488,2.0981 17.5488,4.1968 
			18.5801,4.1968 18.5801,5.2461 19.6133,5.2461 19.6133,7.3442 20.6445,7.3442 20.6445,9.4424 21.6777,9.4424 21.6777,10.4922 
			22.709,10.4922 22.709,12.5903 23.7422,12.5903 23.7422,14.6885 24.7734,14.6885 24.7734,15.7378 25.8066,15.7378 
			25.8066,16.7866 26.8398,16.7866 26.8398,18.8853 27.8711,18.8853 27.8711,20.9834 28.9023,20.9834 28.9023,24.1309 
			29.9355,24.1309 29.9355,27.2788 12.3867,27.2788 12.3867,28.3276 9.291,28.3276 9.291,27.2788 8.2578,27.2788 8.2578,26.2295 
			7.2266,26.2295 7.2266,25.1807 6.1934,25.1807 6.1934,24.1309 5.1621,24.1309 5.1621,23.082 4.1289,23.082 4.1289,22.0327 
			3.0977,22.0327 3.0977,20.9834 2.0645,20.9834 2.0645,19.9346 0,19.9346 0,27.2788 1.0332,27.2788 1.0332,29.377 2.0645,29.377 
			2.0645,30.4263 3.0977,30.4263 3.0977,31.4756 1.0332,31.4756 1.0332,32.5244 3.0977,32.5244 3.0977,33.5732 2.0645,33.5732 
			2.0645,34.623 1.0332,34.623 1.0332,36.7217 0,36.7217 0,44.0654 2.0645,44.0654 2.0645,43.0166 3.0977,43.0166 3.0977,41.9668 
			4.1289,41.9668 4.1289,40.918 5.1621,40.918 5.1621,39.8691 6.1934,39.8691 6.1934,38.8193 7.2266,38.8193 7.2266,37.7705 
			8.2578,37.7705 8.2578,36.7217 9.291,36.7217 9.291,35.6729 12.3867,35.6729 12.3867,36.7217 29.9355,36.7217 29.9355,39.8691 
			28.9023,39.8691 28.9023,43.0166 27.8711,43.0166 27.8711,45.1152 26.8398,45.1152 26.8398,47.2129 25.8066,47.2129 
			25.8066,48.2617 24.7734,48.2617 24.7734,49.3115 23.7422,49.3115 23.7422,51.4102 22.709,51.4102 22.709,53.5078 
			21.6777,53.5078 21.6777,54.5576 20.6445,54.5576 20.6445,56.6553 19.6133,56.6553 19.6133,58.7539 18.5801,58.7539 
			18.5801,59.8037 17.5488,59.8037 17.5488,61.9014 16.5156,61.9014 16.5156,64 20.6445,64 20.6445,62.9502 21.6777,62.9502 
			21.6777,61.9014 22.709,61.9014 22.709,60.8525 23.7422,60.8525 23.7422,59.8037 24.7734,59.8037 24.7734,58.7539 
			25.8066,58.7539 25.8066,57.7051 26.8398,57.7051 26.8398,56.6553 27.8711,56.6553 27.8711,55.6064 28.9023,55.6064 
			28.9023,54.5576 29.9355,54.5576 29.9355,53.5078 34.0645,53.5078 34.0645,51.4102 33.0313,51.4102 33.0313,50.3613 
			34.0645,50.3613 34.0645,49.3115 35.0977,49.3115 35.0977,48.2617 36.1289,48.2617 36.1289,47.2129 37.1611,47.2129 
			37.1611,46.1641 38.1934,46.1641 38.1934,45.1152 42.3223,45.1152 42.3223,43.0166 41.291,43.0166 41.291,41.9668 
			42.3223,41.9668 42.3223,40.918 43.3555,40.918 43.3555,39.8691 44.3867,39.8691 44.3867,38.8193 45.4199,38.8193 
			45.4199,37.7705 46.4512,37.7705 46.4512,36.7217 57.8066,36.7217 57.8066,35.6729 60.9023,35.6729 60.9023,34.623 
			61.9355,34.623 61.9355,33.5732 62.9688,33.5732 62.9688,32.5244 64,32.5244 64,31.4756 62.9688,31.4756 		"/>
		<g>
			<polygon fill="#B7BABD" points="61.9355,32.5244 60.9023,32.5244 60.9023,33.5732 59.8711,33.5732 59.8711,34.623 
				58.8398,34.623 57.8066,34.623 56.7734,34.623 55.7422,34.623 54.709,34.623 53.6777,34.623 52.6445,34.623 51.6133,34.623 
				50.5801,34.623 49.5488,34.623 48.5156,34.623 47.4844,34.623 47.4844,35.6729 46.4512,35.6729 45.4199,35.6729 44.3867,35.6729 
				43.3555,35.6729 42.3223,35.6729 41.291,35.6729 40.2578,35.6729 39.2266,35.6729 38.1934,35.6729 37.1611,35.6729 
				36.1289,35.6729 35.0977,35.6729 34.0645,35.6729 33.0313,35.6729 32,35.6729 30.9688,35.6729 29.9355,35.6729 28.9023,35.6729 
				27.8711,35.6729 26.8398,35.6729 25.8066,35.6729 24.7734,35.6729 23.7422,35.6729 22.709,35.6729 21.6777,35.6729 
				20.6445,35.6729 19.6133,35.6729 18.5801,35.6729 18.5801,34.623 17.5488,34.623 16.5156,34.623 15.4844,34.623 15.4844,33.5732 
				14.4512,33.5732 13.4199,33.5732 12.3867,33.5732 12.3867,32.5244 11.3555,32.5244 10.3223,32.5244 9.291,32.5244 
				8.2578,32.5244 7.2266,32.5244 6.1934,32.5244 5.1621,32.5244 4.1289,32.5244 3.0977,32.5244 3.0977,33.5732 2.0645,33.5732 
				2.0645,34.623 1.0332,34.623 1.0332,35.6729 1.0332,36.7217 1.0332,37.7705 2.0645,37.7705 2.0645,38.8193 3.0977,38.8193 
				4.1289,38.8193 4.1289,37.7705 5.1621,37.7705 5.1621,36.7217 6.1934,36.7217 6.1934,35.6729 7.2266,35.6729 7.2266,34.623 
				8.2578,34.623 8.2578,35.6729 9.291,35.6729 10.3223,35.6729 11.3555,35.6729 12.3867,35.6729 12.3867,36.7217 13.4199,36.7217 
				14.4512,36.7217 15.4844,36.7217 16.5156,36.7217 17.5488,36.7217 18.5801,36.7217 19.6133,36.7217 20.6445,36.7217 
				21.6777,36.7217 22.709,36.7217 23.7422,36.7217 24.7734,36.7217 25.8066,36.7217 26.8398,36.7217 27.8711,36.7217 
				28.9023,36.7217 29.9355,36.7217 29.9355,37.7705 29.9355,38.8193 30.9688,38.8193 30.9688,39.8691 32,39.8691 32,40.918 
				33.0313,40.918 34.0645,40.918 35.0977,40.918 36.1289,40.918 37.1611,40.918 38.1934,40.918 39.2266,40.918 40.2578,40.918 
				40.2578,39.8691 41.291,39.8691 42.3223,39.8691 42.3223,38.8193 43.3555,38.8193 44.3867,38.8193 44.3867,37.7705 
				45.4199,37.7705 46.4512,37.7705 46.4512,36.7217 47.4844,36.7217 48.5156,36.7217 49.5488,36.7217 50.5801,36.7217 
				51.6133,36.7217 52.6445,36.7217 53.6777,36.7217 54.709,36.7217 55.7422,36.7217 56.7734,36.7217 57.8066,36.7217 
				57.8066,35.6729 58.8398,35.6729 59.8711,35.6729 60.9023,35.6729 60.9023,34.623 61.9355,34.623 61.9355,33.5732 
				62.9688,33.5732 62.9688,32.5244 			"/>
			<polygon fill="#B7BABD" points="32,27.2788 33.0313,27.2788 34.0645,27.2788 35.0977,27.2788 36.1289,27.2788 37.1611,27.2788 
				38.1934,27.2788 39.2266,27.2788 40.2578,27.2788 41.291,27.2788 42.3223,27.2788 43.3555,27.2788 44.3867,27.2788 
				45.4199,27.2788 46.4512,27.2788 46.4512,26.2295 45.4199,26.2295 44.3867,26.2295 43.3555,26.2295 42.3223,26.2295 
				41.291,26.2295 40.2578,26.2295 39.2266,26.2295 38.1934,26.2295 37.1611,26.2295 36.1289,26.2295 35.0977,26.2295 
				34.0645,26.2295 33.0313,26.2295 32,26.2295 30.9688,26.2295 29.9355,26.2295 29.9355,27.2788 30.9688,27.2788 			"/>
			<polygon fill="#B7BABD" points="42.3223,20.9834 42.3223,19.9346 41.291,19.9346 40.2578,19.9346 40.2578,20.9834 
				41.291,20.9834 			"/>
			<polygon fill="#B7BABD" points="34.0645,12.5903 34.0645,11.541 33.0313,11.541 32,11.541 32,12.5903 33.0313,12.5903 			"/>
			<polygon fill="#B7BABD" points="40.2578,44.0654 39.2266,44.0654 38.1934,44.0654 38.1934,45.1152 39.2266,45.1152 
				40.2578,45.1152 41.291,45.1152 42.3223,45.1152 42.3223,44.0654 41.291,44.0654 			"/>
			<polygon fill="#B7BABD" points="32,52.459 30.9688,52.459 29.9355,52.459 29.9355,53.5078 30.9688,53.5078 32,53.5078 
				33.0313,53.5078 34.0645,53.5078 34.0645,52.459 33.0313,52.459 			"/>
			<polygon fill="#B7BABD" points="5.1621,31.4756 6.1934,31.4756 7.2266,31.4756 8.2578,31.4756 8.2578,30.4263 7.2266,30.4263 
				6.1934,30.4263 5.1621,30.4263 4.1289,30.4263 3.0977,30.4263 3.0977,31.4756 4.1289,31.4756 			"/>
			<rect x="8.2578" y="27.2788" fill="#B7BABD" width="1.0332" height="1.0488"/>
		</g>
	</g>
</g>
</svg>
