<?xml version="1.0" encoding="utf-8"?>
<!-- Generator: Adobe Illustrator 16.0.0, SVG Export Plug-In . SVG Version: 6.00 Build 0)  -->
<!DOCTYPE svg PUBLIC "-//W3C//DTD SVG 1.1//EN" "http://www.w3.org/Graphics/SVG/1.1/DTD/svg11.dtd">
<svg version="1.1" xmlns="http://www.w3.org/2000/svg" xmlns:xlink="http://www.w3.org/1999/xlink" x="0px" y="0px" width="64px"
	 height="64px" viewBox="0 0 64 64" enable-background="new 0 0 64 64" xml:space="preserve">
<g id="Air_Plane" >
	<polygon id="Ground_Shadow" display="inline" opacity="0.2" points="61.001,33 61.001,31.999 60,31.999 60,31 58.999,31 58.999,30 
		56,30 56,29 45,29 45,28 44.001,28 44.001,27 43,27 43,26 42.001,26 42.001,25 41,25 41,24 40.001,24 40.001,23 41,23 41,21 37,21 
		37,20 36,20 36,19 35,19 35,18 34.001,18 34.001,17 33,17 33,16 31.999,16 31.999,15 33,15 33,13 29,13 29,12 27.999,12 27.999,11 
		27,11 27,10 26.001,10 26.001,9 25,9 25,8 23.999,8 23.999,7 23,7 23,6 21.9995,6 21.9995,5 21.0005,5 21.0005,3.9995 
		19.9995,3.9995 19.9995,3 15.9995,3 15.9995,5 17.0005,5 17.0005,7 17.9995,7 17.9995,8 19.0005,8 19.0005,10 19.9995,10 
		19.9995,12 21.0005,12 21.0005,13 21.9995,13 21.9995,15 23,15 23,17 23.999,17 23.999,18 25,18 25,19 26.001,19 26.001,21 27,21 
		27,23 27.999,23 27.999,26 29,26 29,29 11.9995,29 11.9995,30 9.0005,30 9.0005,29 8,29 8,28 7.001,28 7.001,27 6,27 6,26 
		5.001,26 5.001,25 4,25 4,24 3.001,24 3.001,23 2,23 2,22 0,22 0,29 1.001,29 1.001,31 2,31 2,31.999 3.001,31.999 3.001,33 
		1.001,33 1.001,34 3.001,34 3.001,35 2,35 2,36 1.001,36 1.001,37.999 0,37.999 0,45 2,45 2,44.001 3.001,44.001 3.001,43.001 
		4,43.001 4,41.999 5.001,41.999 5.001,41 6,41 6,40 7.001,40 7.001,39.001 8,39.001 8,37.999 9.0005,37.999 9.0005,37 11.9995,37 
		11.9995,37.999 29,37.999 29,41 27.999,41 27.999,44.001 27,44.001 27,46 26.001,46 26.001,48.001 25,48.001 25,49 23.999,49 
		23.999,50 23,50 23,51.999 21.9995,51.999 21.9995,54 21.0005,54 21.0005,55 19.9995,55 19.9995,57.001 19.0005,57.001 19.0005,59 
		17.9995,59 17.9995,60 17.0005,60 17.0005,62.001 15.9995,62.001 15.9995,64 19.9995,64 19.9995,63 21.0005,63 21.0005,62.001 
		21.9995,62.001 21.9995,60.999 23,60.999 23,60 23.999,60 23.999,59 25,59 25,58.001 26.001,58.001 26.001,57.001 27,57.001 
		27,55.999 27.999,55.999 27.999,55 29,55 29,54 33,54 33,51.999 31.999,51.999 31.999,51 33,51 33,50 34.001,50 34.001,49 35,49 
		35,48.001 36,48.001 36,46.999 37,46.999 37,46 41,46 41,44.001 40.001,44.001 40.001,43.001 41,43.001 41,41.999 42.001,41.999 
		42.001,41 43,41 43,40 44.001,40 44.001,39.001 45,39.001 45,37.999 56,37.999 56,37 58.999,37 58.999,36 60,36 60,35 61.001,35 
		61.001,34 62,34 62,33 61.001,33 61.001,33 	"/>
	<polygon display="inline" fill="#73B6E6" points="63.001,30 63.001,28.999 62,28.999 62,28 60.999,28 60.999,27 58,27 58,26.0005 
		47,26.0005 47,25.0005 46.001,25.0005 46.001,24 45,24 45,23 44.001,23 44.001,21.9995 43,21.9995 43,21.0005 42.001,21.0005 
		42.001,20.0005 43,20.0005 43,18 39,18 39,16.9995 38,16.9995 38,16.0005 37,16.0005 37,15 36.001,15 36.001,14 35,14 35,13 
		33.999,13 33.999,11.9995 35,11.9995 35,10 31,10 31,9 29.999,9 29.999,7.9995 29,7.9995 29,7 28.001,7 28.001,6.0005 27,6.0005 
		27,5 25.999,5 25.999,4.0005 25,4.0005 25,2.9995 23.9995,2.9995 23.9995,2 23.0005,2 23.0005,0.9995 21.9995,0.9995 21.9995,0 
		17.9995,0 17.9995,2 19.0005,2 19.0005,4.0005 19.9995,4.0005 19.9995,5 21.0005,5 21.0005,7 21.9995,7 21.9995,9 23.0005,9 
		23.0005,10 23.9995,10 23.9995,11.9995 25,11.9995 25,14 25.999,14 25.999,15 27,15 27,16.0005 28.001,16.0005 28.001,18 29,18 
		29,20.0005 29.999,20.0005 29.999,23 31,23 31,26.0005 13.9995,26.0005 13.9995,27 11.0005,27 11.0005,26.0005 10,26.0005 
		10,25.0005 9.001,25.0005 9.001,24 8,24 8,23 7.001,23 7.001,21.9995 6,21.9995 6,21.0005 5.001,21.0005 5.001,20.0005 4,20.0005 
		4,19 2,19 2,26.0005 3.001,26.0005 3.001,28 4,28 4,28.999 5.001,28.999 5.001,30 3.001,30 3.001,31 5.001,31 5.001,32 4,32 4,33 
		3.001,33 3.001,34.999 2,34.999 2,42 4,42 4,41.001 5.001,41.001 5.001,40.001 6,40.001 6,38.999 7.001,38.999 7.001,38 8,38 8,37 
		9.001,37 9.001,36.001 10,36.001 10,34.999 11.0005,34.999 11.0005,34 13.9995,34 13.9995,34.999 31,34.999 31,38 29.999,38 
		29.999,41.001 29,41.001 29,43 28.001,43 28.001,45.001 27,45.001 27,46 25.999,46 25.999,47 25,47 25,48.999 23.9995,48.999 
		23.9995,51 23.0005,51 23.0005,52 21.9995,52 21.9995,54.001 21.0005,54.001 21.0005,56 19.9995,56 19.9995,57 19.0005,57 
		19.0005,59.001 17.9995,59.001 17.9995,61 21.9995,61 21.9995,60 23.0005,60 23.0005,59.001 23.9995,59.001 23.9995,57.999 
		25,57.999 25,57 25.999,57 25.999,56 27,56 27,55.001 28.001,55.001 28.001,54.001 29,54.001 29,52.999 29.999,52.999 29.999,52 
		31,52 31,51 35,51 35,48.999 33.999,48.999 33.999,48 35,48 35,47 36.001,47 36.001,46 37,46 37,45.001 38,45.001 38,43.999 
		39,43.999 39,43 43,43 43,41.001 42.001,41.001 42.001,40.001 43,40.001 43,38.999 44.001,38.999 44.001,38 45,38 45,37 46.001,37 
		46.001,36.001 47,36.001 47,34.999 58,34.999 58,34 60.999,34 60.999,33 62,33 62,32 63.001,32 63.001,31 64,31 64,30 63.001,30 
		63.001,30 	"/>
	<g display="inline">
		<polygon fill="#F2F2F2" points="46,25 46,24 45,24 45,23 44,23 44,22 43,22 43,21 42,21 42,20 43,20 43,18 39,18 39,17 38,17 
			38,16 37,16 37,15 36,15 36,14 35,14 35,13 34,13 34,12 35,12 35,10 31,10 31,9 30,9 30,8 29,8 29,7 28,7 28,6 27,6 27,5 26,5 
			26,4 25,4 25,3 24,3 24,2 23,2 23,1 22,1 22,0 18,0 18,2 19,2 19,4 20,4 20,5 21,5 21,7 22,7 22,9 23,9 23,10 24,10 24,12 25,12 
			25,14 26,14 26,15 27,15 27,16 28,16 28,18 29,18 29,20 30,20 30,23 31,23 31,26 32,26 32,27 46,27 46,26 47,26 47,25 46,25 
			46,25 		"/>
		<polygon fill="#F2F2F2" points="46,34 32,34 32,35 31,35 31,38 30,38 30,41 29,41 29,43 28,43 28,45 27,45 27,46 26,46 26,47 
			25,47 25,49 24,49 24,51 23,51 23,52 22,52 22,54 21,54 21,56 20,56 20,57 19,57 19,59 18,59 18,61 22,61 22,60 23,60 23,59 
			24,59 24,58 25,58 25,57 26,57 26,56 27,56 27,55 28,55 28,54 29,54 29,53 30,53 30,52 31,52 31,51 35,51 35,49 34,49 34,48 
			35,48 35,47 36,47 36,46 37,46 37,45 38,45 38,44 39,44 39,43 43,43 43,41 42,41 42,40 43,40 43,39 44,39 44,38 45,38 45,37 
			46,37 46,36 47,36 47,35 46,35 46,34 46,34 		"/>
		<polygon fill="#F2F2F2" points="9,33 9,32 6,32 6,31 5,31 5,32 4,32 4,33 3,33 3,35 2,35 2,42 4,42 4,41 5,41 5,40 6,40 6,39 
			7,39 7,38 8,38 8,37 9,37 9,36 10,36 10,35 11,35 11,33 9,33 9,33 		"/>
		<polygon fill="#F2F2F2" points="10,25 9,25 9,24 8,24 8,23 7,23 7,22 6,22 6,21 5,21 5,20 4,20 4,19 2,19 2,26 3,26 3,28 4,28 
			4,29 5,29 5,30 6,30 6,29 9,29 9,28 11,28 11,26 10,26 10,25 10,25 		"/>
	</g>
	<polygon display="inline" fill="#598FB3" points="31,30 29,30 29,29 25,29 25,28 23,28 23,27 21,27 21,26 14,26 14,27 11,27 11,28 
		9,28 9,29 6,29 6,30 3,30 3,31 6,31 6,32 9,32 9,33 11,33 11,34 14,34 14,35 21,35 21,34 23,34 23,33 25,33 25,32 29,32 29,31 
		32,31 32,30 31,30 31,30 	"/>
	<g display="inline">
		<polygon fill="#FF1D25" points="34,11 34,12 35,12 35,10 34,10 34,11 34,11 		"/>
		<polygon fill="#FF1D25" points="42,18 42,20 43,20 43,18 42,18 42,18 		"/>
		<polygon fill="#FF1D25" points="42,42 42,43 43,43 43,41 42,41 42,42 42,42 		"/>
		<polygon fill="#FF1D25" points="34,50 34,51 35,51 35,49 34,49 34,50 34,50 		"/>
		<polygon fill="#FF1D25" points="17,30 3,30 3,31 19,31 19,30 17,30 17,30 		"/>
	</g>
	<g id="shadows" display="inline" opacity="0.2">
		<polygon points="62,31 60.999,31 60.999,32 60,32 60,33 48,33 48,34 19.9995,34 19.9995,33 17.0005,33 17.0005,32 13.9995,32 
			13.9995,31 5.001,31 5.001,32 4,32 4,33 3.001,33 3.001,36.001 4,36.001 4,37 6,37 6,36.001 7.001,36.001 7.001,34.999 8,34.999 
			8,34 9.001,34 9.001,33 10,33 10,34 13.9995,34 13.9995,34.999 31,34.999 31,37 32.001,37 32.001,38 33,38 33,38.999 41,38.999 
			41,38 43,38 43,37 45,37 45,36.001 47,36.001 47,34.999 58,34.999 58,34 60.999,34 60.999,33 62,33 62,32 63.001,32 63.001,31 
			62,31 62,31 		"/>
		<polygon points="33,26.0005 47,26.0005 47,25.0005 31,25.0005 31,26.0005 33,26.0005 		"/>
		<polygon points="43,20.0005 43,19 41,19 41,20.0005 43,20.0005 		"/>
		<polygon points="35,11.9995 35,11.0005 33,11.0005 33,11.9995 35,11.9995 		"/>
		<polygon points="41,42 39,42 39,43 43,43 43,42 41,42 41,42 		"/>
		<polygon points="33,50.001 31,50.001 31,51 35,51 35,50.001 33,50.001 33,50.001 		"/>
		<polygon points="7.001,30 10,30 10,28.999 5.001,28.999 5.001,30 7.001,30 		"/>
		<polygon points="10,26.0005 11.0005,26.0005 11.0005,27 10,27 10,26.0005 10,26.0005 		"/>
	</g>
	<g id="Window" display="inline">
		<polygon points="59.1563,32 58.1875,32 58.1875,31 59.1563,31 59.1563,32 59.1563,32 		"/>
		<polygon points="59.1563,31 58.1875,31 58.1875,30 59.1563,30 59.1563,31 59.1563,31 		"/>
		<polygon points="59.1563,30 58.1875,30 58.1875,29 59.1563,29 59.1563,30 59.1563,30 		"/>
		<polygon points="58.1875,29 57.2188,29 57.2188,28 58.1875,28 58.1875,29 58.1875,29 		"/>
		<polygon points="58.1875,33 57.2188,33 57.2188,32 58.1875,32 58.1875,33 58.1875,33 		"/>
	</g>
</g>
</svg>
