<?xml version="1.0" encoding="utf-8"?>
<!-- Generator: Adobe Illustrator 16.0.0, SVG Export Plug-In . SVG Version: 6.00 Build 0)  -->
<!DOCTYPE svg PUBLIC "-//W3C//DTD SVG 1.1//EN" "http://www.w3.org/Graphics/SVG/1.1/DTD/svg11.dtd">
<svg version="1.1" xmlns="http://www.w3.org/2000/svg" xmlns:xlink="http://www.w3.org/1999/xlink" x="0px" y="0px" width="64px"
	 height="64px" viewBox="0 0 64 64" enable-background="new 0 0 64 64" xml:space="preserve">
<g id="Data" >
	<g display="inline">
		<polygon points="53,6 18,6 18,7 17,7 17,8 16,8 16,9 15,9 15,10 14,10 14,11 13,11 13,12 12,12 12,13 11,13 11,14 10,14 10,57 
			54,57 54,6 53,6 53,6 		"/>
		<polygon fill="#FFFFFF" points="14,13 14,12 15,12 15,11 16,11 16,10 17,10 17,9 18,9 18,8 19,8 19,14 13,14 13,13 14,13 		"/>
		<polygon fill="#FFFFFF" points="53,8 53,56 11,56 11,15 20,15 20,7 53,7 53,8 53,8 		"/>
		<g>
			<path d="M15,18h-1v3h3v-3H15L15,18L15,18z M16,20h-1v-1h1V20L16,20L16,20z"/>
			<polygon points="49,19 19,19 19,21 50,21 50,19 49,19 49,19 			"/>
			<path d="M15,27h-1v3h3v-3H15L15,27L15,27z M16,29h-1v-1h1V29L16,29L16,29z"/>
			<polygon points="48,28 19,28 19,30 50,30 50,28 48,28 48,28 			"/>
			<path d="M15,36h-1v3h3v-3H15L15,36L15,36z M16,38h-1v-1h1V38L16,38L16,38z"/>
			<polygon points="48,37 19,37 19,39 50,39 50,37 48,37 48,37 			"/>
		</g>
	</g>
</g>
</svg>
