<?xml version="1.0" encoding="utf-8"?>
<!-- Generator: Adobe Illustrator 16.0.0, SVG Export Plug-In . SVG Version: 6.00 Build 0)  -->
<!DOCTYPE svg PUBLIC "-//W3C//DTD SVG 1.1//EN" "http://www.w3.org/Graphics/SVG/1.1/DTD/svg11.dtd">
<svg version="1.1" xmlns="http://www.w3.org/2000/svg" xmlns:xlink="http://www.w3.org/1999/xlink" x="0px" y="0px" width="64px"
	 height="64px" viewBox="0 0 64 64" enable-background="new 0 0 64 64" xml:space="preserve">
<g id="Empty_Pallet" >
	<g display="inline">
		<path fill="#C69C6D" d="M63,55H0v9h64v-9H63L63,55L63,55z M62,58v4H32v-5h30V58L62,58L62,58z M2,61v-4h28v5H2V61L2,61L2,61z"/>
		<polygon opacity="0.4" points="30,62 2,62 2,57 30,57 30,62 		"/>
		<polygon opacity="0.4" points="62,62 32,62 32,57 62,57 62,62 		"/>
	</g>
	<g display="inline" opacity="0.5">
		<path d="M59,11H3v44h57V11H59L59,11L59,11z M4,32V12h26v21H4V32L4,32L4,32z M29,54H4V34h26v20H29L29,54L29,54z M59,35v19H32V34h27
			V35L59,35L59,35z M59,13v20H32V12h27V13L59,13L59,13z"/>
	</g>
	<g display="inline" opacity="0.5">
		<polygon fill="#C69C6D" points="30,33 4,33 4,12 30,12 30,33 		"/>
		<polygon id="Tape_7_" opacity="0.4" points="19,12 15,12 15,25 16,25 16,24 17,24 17,23 18,23 18,24 19,24 19,25 20,25 20,12 
			19,12 19,12 		"/>
	</g>
	<g display="inline" opacity="0.5">
		<polygon fill="#C69C6D" points="59,33 32,33 32,12 59,12 59,33 		"/>
		<polygon id="Tape_6_" opacity="0.4" points="47,12 43,12 43,25 44,25 44,24 45,24 45,23 46,23 46,24 47,24 47,25 48,25 48,12 
			47,12 47,12 		"/>
	</g>
	<g display="inline" opacity="0.5">
		<polygon fill="#C69C6D" points="59,54 32,54 32,34 59,34 59,54 		"/>
		<polygon id="Tape_5_" opacity="0.4" points="47,34 43,34 43,47 44,47 44,46 45,46 45,45 46,45 46,46 47,46 47,47 48,47 48,34 
			47,34 47,34 		"/>
	</g>
	<g display="inline" opacity="0.5">
		<polygon fill="#C69C6D" points="30,54 4,54 4,34 30,34 30,54 		"/>
		<polygon id="Tape_4_" opacity="0.4" points="19,34 15,34 15,47 16,47 16,46 17,46 17,45 18,45 18,46 19,46 19,47 20,47 20,34 
			19,34 19,34 		"/>
	</g>
</g>
<g id="Layer_8" >
	<g display="inline">
		<polygon fill="#ED1C24" points="55,19 54,19 54,18 52,18 52,19 51,19 51,20 50,20 50,22 51,22 51,23 52,23 52,24 54,24 54,23 
			55,23 55,22 56,22 56,20 55,20 55,19 		"/>
		<polygon fill="#ED1C24" points="55,1 50,1 50,12 51,12 51,17 55,17 55,12 56,12 56,1 55,1 		"/>
	</g>
	<polygon display="inline" fill="#ED7479" points="52,17 51,17 51,16 52,16 52,17 	"/>
	<polygon display="inline" fill="#ED7479" points="52,16 51,16 51,15 52,15 52,16 	"/>
	<polygon display="inline" fill="#ED7479" points="52,15 51,15 51,14 52,14 52,15 	"/>
	<polygon display="inline" fill="#ED7479" points="52,14 51,14 51,13 52,13 52,14 	"/>
	<polygon display="inline" fill="#ED7479" points="52,13 51,13 51,12 52,12 52,13 	"/>
	<polygon display="inline" fill="#ED7479" points="52,12 51,12 51,11 52,11 52,12 	"/>
	<polygon display="inline" fill="#ED7479" points="51,12 50,12 50,11 51,11 51,12 	"/>
	<polygon display="inline" fill="#ED7479" points="51,11 50,11 50,10 51,10 51,11 	"/>
	<polygon display="inline" fill="#ED7479" points="51,10 50,10 50,9 51,9 51,10 	"/>
	<polygon display="inline" fill="#ED7479" points="51,9 50,9 50,8 51,8 51,9 	"/>
	<polygon display="inline" fill="#ED7479" points="51,8 50,8 50,7 51,7 51,8 	"/>
	<polygon display="inline" fill="#ED7479" points="51,7 50,7 50,6 51,6 51,7 	"/>
	<polygon display="inline" fill="#ED7479" points="51,6 50,6 50,5 51,5 51,6 	"/>
	<polygon display="inline" fill="#ED7479" points="51,5 50,5 50,4 51,4 51,5 	"/>
	<polygon display="inline" fill="#ED7479" points="51,4 50,4 50,3 51,3 51,4 	"/>
	<polygon display="inline" fill="#ED7479" points="51,3 50,3 50,2 51,2 51,3 	"/>
	<polygon display="inline" fill="#ED7479" points="51,2 50,2 50,1 51,1 51,2 	"/>
	<polygon display="inline" fill="#ED7479" points="52,2 51,2 51,1 52,1 52,2 	"/>
	<polygon display="inline" fill="#ED7479" points="53,24 52,24 52,23 53,23 53,24 	"/>
	<polygon display="inline" fill="#ED7479" points="53,23 52,23 52,22 53,22 53,23 	"/>
	<polygon display="inline" fill="#ED7479" points="52,23 51,23 51,22 52,22 52,23 	"/>
	<polygon display="inline" fill="#ED7479" points="52,22 51,22 51,21 52,21 52,22 	"/>
	<polygon display="inline" fill="#ED7479" points="51,22 50,22 50,21 51,21 51,22 	"/>
	<polygon display="inline" fill="#ED7479" points="51,21 50,21 50,20 51,20 51,21 	"/>
	<polygon display="inline" fill="#ED7479" points="52,21 51,21 51,20 52,20 52,21 	"/>
	<polygon display="inline" fill="#ED7479" points="52,20 51,20 51,19 52,19 52,20 	"/>
	<polygon display="inline" fill="#ED7479" points="53,20 52,20 52,19 53,19 53,20 	"/>
	<polygon display="inline" fill="#ED7479" points="53,19 52,19 52,18 53,18 53,19 	"/>
	<polygon display="inline" fill="#B02F3B" points="54,24 53,24 53,23 54,23 54,24 	"/>
	<polygon display="inline" fill="#B02F3B" points="55,23 54,23 54,22 55,22 55,23 	"/>
	<polygon display="inline" fill="#B02F3B" points="56,22 55,22 55,21 56,21 56,22 	"/>
	<polygon display="inline" fill="#B02F3B" points="56,21 55,21 55,20 56,20 56,21 	"/>
	<polygon display="inline" fill="#B02F3B" points="55,17 54,17 54,16 55,16 55,17 	"/>
	<polygon display="inline" fill="#B02F3B" points="55,16 54,16 54,15 55,15 55,16 	"/>
	<polygon display="inline" fill="#B02F3B" points="55,15 54,15 54,14 55,14 55,15 	"/>
	<polygon display="inline" fill="#B02F3B" points="55,14 54,14 54,13 55,13 55,14 	"/>
	<polygon display="inline" fill="#B02F3B" points="55,13 54,13 54,12 55,12 55,13 	"/>
	<polygon display="inline" fill="#B02F3B" points="56,12 55,12 55,11 56,11 56,12 	"/>
	<polygon display="inline" fill="#B02F3B" points="56,11 55,11 55,10 56,10 56,11 	"/>
	<polygon display="inline" fill="#B02F3B" points="56,10 55,10 55,9 56,9 56,10 	"/>
	<polygon display="inline" fill="#B02F3B" points="56,9 55,9 55,8 56,8 56,9 	"/>
	<polygon display="inline" fill="#B02F3B" points="56,8 55,8 55,7 56,7 56,8 	"/>
	<polygon display="inline" fill="#B02F3B" points="56,7 55,7 55,6 56,6 56,7 	"/>
	<polygon display="inline" fill="#B02F3B" points="56,6 55,6 55,5 56,5 56,6 	"/>
	<polygon display="inline" fill="#B02F3B" points="56,5 55,5 55,4 56,4 56,5 	"/>
	<polygon display="inline" fill="#B02F3B" points="56,4 55,4 55,3 56,3 56,4 	"/>
	<polygon display="inline" fill="#B02F3B" points="56,3 55,3 55,2 56,2 56,3 	"/>
	<polygon display="inline" fill="#B02F3B" points="56,2 55,2 55,1 56,1 56,2 	"/>
	<polygon display="inline" fill="#B02F3B" points="54,17 53,17 53,16 54,16 54,17 	"/>
</g>
</svg>
