<?xml version="1.0" encoding="utf-8"?>
<!-- Generator: Adobe Illustrator 16.0.0, SVG Export Plug-In . SVG Version: 6.00 Build 0)  -->
<!DOCTYPE svg PUBLIC "-//W3C//DTD SVG 1.1//EN" "http://www.w3.org/Graphics/SVG/1.1/DTD/svg11.dtd">
<svg version="1.1" xmlns="http://www.w3.org/2000/svg" xmlns:xlink="http://www.w3.org/1999/xlink" x="0px" y="0px" width="64px"
	 height="64px" viewBox="0 0 64 64" enable-background="new 0 0 64 64" xml:space="preserve">
<g id="UK_Truck" >
	<polygon id="Cab_Color_3_" display="inline" opacity="0.2" points="61,29 59,29 59,28 58,28 58,29 53,29 53,39 58,39 58,40 59,40 
		59,39 61,39 61,37 62,37 62,31 61,31 61,29 	"/>
	<polygon id="container_color_3_" display="inline" opacity="0.2" points="13,29 13,39 52,39 52,29 13,29 	"/>
	<polygon id="Cab_Color_1_" display="inline" fill="#66BB53" points="63,27 61,27 61,26 60,26 60,27 55,27 55,37 60,37 60,38 61,38 
		61,37 63,37 63,35 64,35 64,29 63,29 63,27 	"/>
	<polygon id="shading_1_" display="inline" opacity="0.2" points="62,35 60,35 60,29 62,29 62,35 	"/>
	<g display="inline">
		<polygon id="container_color_1_" fill="#E67373" points="15,27 15,37 54,37 54,27 15,27 		"/>
		<g id="stripes_1_" opacity="0.2">
			<polygon points="53,27 53,37 54,37 54,27 53,27 53,27 			"/>
			<polygon points="51,27 51,37 52,37 52,27 51,27 51,27 			"/>
			<polygon points="49,27 49,37 50,37 50,27 49,27 49,27 			"/>
			<polygon points="47,27 47,37 48,37 48,27 47,27 47,27 			"/>
			<polygon points="45,27 45,37 46,37 46,27 45,27 45,27 			"/>
			<polygon points="43,27 43,37 44,37 44,27 43,27 43,27 			"/>
			<polygon points="41,27 41,37 42,37 42,27 41,27 41,27 			"/>
			<polygon points="39,27 39,37 40,37 40,27 39,27 39,27 			"/>
			<polygon points="37,27 37,37 38,37 38,27 37,27 37,27 			"/>
			<polygon points="35,27 35,37 36,37 36,27 35,27 35,27 			"/>
			<polygon points="33,27 33,37 34,37 34,27 33,27 33,27 			"/>
			<polygon points="31,27 31,37 32,37 32,27 31,27 31,27 			"/>
			<polygon points="29,27 29,37 30,37 30,27 29,27 29,27 			"/>
			<polygon points="27,27 27,37 28,37 28,27 27,27 27,27 			"/>
			<polygon points="25,27 25,37 26,37 26,27 25,27 25,27 			"/>
			<polygon points="23,27 23,37 24,37 24,27 23,27 23,27 			"/>
			<polygon points="21,27 21,37 22,37 22,27 21,27 21,27 			"/>
			<polygon points="19,27 19,37 20,37 20,27 19,27 19,27 			"/>
			<polygon points="17,27 17,37 18,37 18,27 17,27 17,27 			"/>
			<polygon points="15,27 15,37 16,37 16,27 15,27 15,27 			"/>
		</g>
		<g id="conners_1_" opacity="0.2">
			<polygon points="54,28 53,28 53,27 54,27 54,28 			"/>
			<polygon points="54,37 53,37 53,36 54,36 54,37 			"/>
			<polygon points="16,37 15,37 15,36 16,36 16,37 			"/>
			<polygon points="16,28 15,28 15,27 16,27 16,28 			"/>
		</g>
	</g>
</g>
<g id="Layer_8" >
	<g display="inline">
		<polygon fill="#ED1C24" points="55,19 54,19 54,18 52,18 52,19 51,19 51,20 50,20 50,22 51,22 51,23 52,23 52,24 54,24 54,23 
			55,23 55,22 56,22 56,20 55,20 55,19 		"/>
		<polygon fill="#ED1C24" points="55,1 50,1 50,12 51,12 51,17 55,17 55,12 56,12 56,1 55,1 		"/>
	</g>
	<polygon display="inline" fill="#ED7479" points="52,17 51,17 51,16 52,16 52,17 	"/>
	<polygon display="inline" fill="#ED7479" points="52,16 51,16 51,15 52,15 52,16 	"/>
	<polygon display="inline" fill="#ED7479" points="52,15 51,15 51,14 52,14 52,15 	"/>
	<polygon display="inline" fill="#ED7479" points="52,14 51,14 51,13 52,13 52,14 	"/>
	<polygon display="inline" fill="#ED7479" points="52,13 51,13 51,12 52,12 52,13 	"/>
	<polygon display="inline" fill="#ED7479" points="52,12 51,12 51,11 52,11 52,12 	"/>
	<polygon display="inline" fill="#ED7479" points="51,12 50,12 50,11 51,11 51,12 	"/>
	<polygon display="inline" fill="#ED7479" points="51,11 50,11 50,10 51,10 51,11 	"/>
	<polygon display="inline" fill="#ED7479" points="51,10 50,10 50,9 51,9 51,10 	"/>
	<polygon display="inline" fill="#ED7479" points="51,9 50,9 50,8 51,8 51,9 	"/>
	<polygon display="inline" fill="#ED7479" points="51,8 50,8 50,7 51,7 51,8 	"/>
	<polygon display="inline" fill="#ED7479" points="51,7 50,7 50,6 51,6 51,7 	"/>
	<polygon display="inline" fill="#ED7479" points="51,6 50,6 50,5 51,5 51,6 	"/>
	<polygon display="inline" fill="#ED7479" points="51,5 50,5 50,4 51,4 51,5 	"/>
	<polygon display="inline" fill="#ED7479" points="51,4 50,4 50,3 51,3 51,4 	"/>
	<polygon display="inline" fill="#ED7479" points="51,3 50,3 50,2 51,2 51,3 	"/>
	<polygon display="inline" fill="#ED7479" points="51,2 50,2 50,1 51,1 51,2 	"/>
	<polygon display="inline" fill="#ED7479" points="52,2 51,2 51,1 52,1 52,2 	"/>
	<polygon display="inline" fill="#ED7479" points="53,24 52,24 52,23 53,23 53,24 	"/>
	<polygon display="inline" fill="#ED7479" points="53,23 52,23 52,22 53,22 53,23 	"/>
	<polygon display="inline" fill="#ED7479" points="52,23 51,23 51,22 52,22 52,23 	"/>
	<polygon display="inline" fill="#ED7479" points="52,22 51,22 51,21 52,21 52,22 	"/>
	<polygon display="inline" fill="#ED7479" points="51,22 50,22 50,21 51,21 51,22 	"/>
	<polygon display="inline" fill="#ED7479" points="51,21 50,21 50,20 51,20 51,21 	"/>
	<polygon display="inline" fill="#ED7479" points="52,21 51,21 51,20 52,20 52,21 	"/>
	<polygon display="inline" fill="#ED7479" points="52,20 51,20 51,19 52,19 52,20 	"/>
	<polygon display="inline" fill="#ED7479" points="53,20 52,20 52,19 53,19 53,20 	"/>
	<polygon display="inline" fill="#ED7479" points="53,19 52,19 52,18 53,18 53,19 	"/>
	<polygon display="inline" fill="#B02F3B" points="54,24 53,24 53,23 54,23 54,24 	"/>
	<polygon display="inline" fill="#B02F3B" points="55,23 54,23 54,22 55,22 55,23 	"/>
	<polygon display="inline" fill="#B02F3B" points="56,22 55,22 55,21 56,21 56,22 	"/>
	<polygon display="inline" fill="#B02F3B" points="56,21 55,21 55,20 56,20 56,21 	"/>
	<polygon display="inline" fill="#B02F3B" points="55,17 54,17 54,16 55,16 55,17 	"/>
	<polygon display="inline" fill="#B02F3B" points="55,16 54,16 54,15 55,15 55,16 	"/>
	<polygon display="inline" fill="#B02F3B" points="55,15 54,15 54,14 55,14 55,15 	"/>
	<polygon display="inline" fill="#B02F3B" points="55,14 54,14 54,13 55,13 55,14 	"/>
	<polygon display="inline" fill="#B02F3B" points="55,13 54,13 54,12 55,12 55,13 	"/>
	<polygon display="inline" fill="#B02F3B" points="56,12 55,12 55,11 56,11 56,12 	"/>
	<polygon display="inline" fill="#B02F3B" points="56,11 55,11 55,10 56,10 56,11 	"/>
	<polygon display="inline" fill="#B02F3B" points="56,10 55,10 55,9 56,9 56,10 	"/>
	<polygon display="inline" fill="#B02F3B" points="56,9 55,9 55,8 56,8 56,9 	"/>
	<polygon display="inline" fill="#B02F3B" points="56,8 55,8 55,7 56,7 56,8 	"/>
	<polygon display="inline" fill="#B02F3B" points="56,7 55,7 55,6 56,6 56,7 	"/>
	<polygon display="inline" fill="#B02F3B" points="56,6 55,6 55,5 56,5 56,6 	"/>
	<polygon display="inline" fill="#B02F3B" points="56,5 55,5 55,4 56,4 56,5 	"/>
	<polygon display="inline" fill="#B02F3B" points="56,4 55,4 55,3 56,3 56,4 	"/>
	<polygon display="inline" fill="#B02F3B" points="56,3 55,3 55,2 56,2 56,3 	"/>
	<polygon display="inline" fill="#B02F3B" points="56,2 55,2 55,1 56,1 56,2 	"/>
	<polygon display="inline" fill="#B02F3B" points="54,17 53,17 53,16 54,16 54,17 	"/>
</g>

</svg>
