<?xml version="1.0" encoding="utf-8"?>
<!-- Generator: Adobe Illustrator 16.0.0, SVG Export Plug-In . SVG Version: 6.00 Build 0)  -->
<!DOCTYPE svg PUBLIC "-//W3C//DTD SVG 1.1//EN" "http://www.w3.org/Graphics/SVG/1.1/DTD/svg11.dtd">
<svg version="1.1" xmlns="http://www.w3.org/2000/svg" xmlns:xlink="http://www.w3.org/1999/xlink" x="0px" y="0px" width="128px"
	 height="64px" viewBox="0 0 128 64" enable-background="new 0 0 128 64" xml:space="preserve">
<g id="base">
	<polygon fill="#FFFFFF" points="127,29 126,29 126,28 125,28 125,27 124,27 124,26 123,26 123,25 122,25 122,24 121,24 121,23 
		120,23 120,22 119,22 119,21 117,21 117,20 115,20 115,19 111,19 111,18 104,18 104,17 89,17 89,16 80,16 80,15 8,15 8,16 5,16 
		5,17 2,17 2,18 1,18 1,21 0,21 0,43 1,43 1,46 2,46 2,47 5,47 5,48 8,48 8,49 81,49 81,48 89,48 89,47 104,47 104,46 111,46 
		111,45 115,45 115,44 117,44 117,43 119,43 119,42 120,42 120,41 121,41 121,40 122,40 122,39 123,39 123,38 124,38 124,37 125,37 
		125,36 126,36 126,35 127,35 127,34 128,34 128,30 127,30 127,29 	"/>
</g>
</svg>
