<?xml version="1.0" encoding="utf-8"?>
<!-- Generator: Adobe Illustrator 16.0.0, SVG Export Plug-In . SVG Version: 6.00 Build 0)  -->
<!DOCTYPE svg PUBLIC "-//W3C//DTD SVG 1.1//EN" "http://www.w3.org/Graphics/SVG/1.1/DTD/svg11.dtd">
<svg version="1.1" xmlns="http://www.w3.org/2000/svg" xmlns:xlink="http://www.w3.org/1999/xlink" x="0px" y="0px" width="64px"
	 height="64px" viewBox="0 0 64 64" enable-background="new 0 0 64 64" xml:space="preserve">
<g id="Ship" >
	<polygon display="inline" opacity="0.2" points="61,31 61,28 60,28 60,27 59,27 59,26 58,26 58,25 57,25 57,24 56,24 56,23 52,23 
		52,22 2,22 2,23 1,23 1,24 0,24 0,42 1,42 1,43 2,43 2,44 52,44 52,43 56,43 56,42 57,42 57,41 58,41 58,40 59,40 59,39 60,39 
		60,38 61,38 61,35 62,35 62,31 61,31 	"/>
	<polygon display="inline" fill="#6B9099" points="63,29 63,26 62,26 62,25 61,25 61,24 60,24 60,23 59,23 59,22 58,22 58,21 54,21 
		54,20 4,20 4,21 3,21 3,22 2,22 2,40 3,40 3,41 4,41 4,42 54,42 54,41 58,41 58,40 59,40 59,39 60,39 60,38 61,38 61,37 62,37 
		62,36 63,36 63,33 64,33 64,29 63,29 	"/>
	<g display="inline">
		<polygon fill="#FF4D4D" points="11,21 16,21 16,23 11,23 11,21 		"/>
		<polygon fill="#80B9FF" points="16,21 21,21 21,23 16,23 16,21 		"/>
		<polygon fill="#8CC63F" points="21,21 26,21 26,23 21,23 21,21 		"/>
		<polygon fill="#DF757D" points="26,21 31,21 31,23 26,23 26,21 		"/>
		<polygon fill="#80B9FF" points="31,21 36,21 36,23 31,23 31,21 		"/>
		<polygon fill="#8CC63F" points="36,21 41,21 41,23 36,23 36,21 		"/>
		<polygon fill="#4220D4" points="41,21 46,21 46,23 41,23 41,21 		"/>
		<polygon fill="#80B9FF" points="46,21 51,21 51,23 46,23 46,21 		"/>
		<polygon fill="#FFBB4D" points="11,23 16,23 16,25 11,25 11,23 		"/>
		<polygon fill="#E6E6E6" points="16,23 21,23 21,25 16,25 16,23 		"/>
		<polygon fill="#8CC63F" points="21,23 26,23 26,25 21,25 21,23 		"/>
		<polygon fill="#DF757D" points="26,23 31,23 31,25 26,25 26,23 		"/>
		<polygon fill="#FFBB4D" points="31,23 36,23 36,25 31,25 31,23 		"/>
		<polygon fill="#4220D4" points="36,23 41,23 41,25 36,25 36,23 		"/>
		<polygon fill="#E6E6E6" points="41,23 46,23 46,25 41,25 41,23 		"/>
		<polygon fill="#8CC63F" points="46,23 51,23 51,25 46,25 46,23 		"/>
		<polygon fill="#80B9FF" points="11,25 16,25 16,27 11,27 11,25 		"/>
		<polygon fill="#4220D4" points="16,25 21,25 21,27 16,27 16,25 		"/>
		<polygon fill="#FFBB4D" points="21,25 26,25 26,27 21,27 21,25 		"/>
		<polygon fill="#DF757D" points="26,25 31,25 31,27 26,27 26,25 		"/>
		<polygon fill="#E6E6E6" points="31,25 36,25 36,27 31,27 31,25 		"/>
		<polygon fill="#FF4D4D" points="36,25 41,25 41,27 36,27 36,25 		"/>
		<polygon fill="#8CC63F" points="41,25 46,25 46,27 41,27 41,25 		"/>
		<polygon fill="#80B9FF" points="46,25 51,25 51,27 46,27 46,25 		"/>
		<polygon fill="#4220D4" points="11,27 16,27 16,29 11,29 11,27 		"/>
		<polygon fill="#80B9FF" points="16,27 21,27 21,29 16,29 16,27 		"/>
		<polygon fill="#8CC63F" points="21,27 26,27 26,29 21,29 21,27 		"/>
		<polygon fill="#DF757D" points="26,27 31,27 31,29 26,29 26,27 		"/>
		<polygon fill="#FFBB4D" points="31,27 36,27 36,29 31,29 31,27 		"/>
		<polygon fill="#80B9FF" points="36,27 41,27 41,29 36,29 36,27 		"/>
		<polygon fill="#FFBB4D" points="41,27 46,27 46,29 41,29 41,27 		"/>
		<polygon fill="#DF757D" points="46,27 51,27 51,29 46,29 46,27 		"/>
		<polygon fill="#FF4D4D" points="11,29 16,29 16,31 11,31 11,29 		"/>
		<polygon fill="#FFBB4D" points="16,29 21,29 21,31 16,31 16,29 		"/>
		<polygon fill="#FFBB4D" points="21,29 26,29 26,31 21,31 21,29 		"/>
		<polygon fill="#E6E6E6" points="26,29 31,29 31,31 26,31 26,29 		"/>
		<polygon fill="#4220D4" points="31,29 36,29 36,31 31,31 31,29 		"/>
		<polygon fill="#FFBB4D" points="36,29 41,29 41,31 36,31 36,29 		"/>
		<polygon fill="#DF757D" points="41,29 46,29 46,31 41,31 41,29 		"/>
		<polygon fill="#FFBB4D" points="46,29 51,29 51,31 46,31 46,29 		"/>
		<polygon fill="#FFBB4D" points="11,31 16,31 16,33 11,33 11,31 		"/>
		<polygon fill="#E6E6E6" points="16,31 21,31 21,33 16,33 16,31 		"/>
		<polygon fill="#8CC63F" points="21,31 26,31 26,33 21,33 21,31 		"/>
		<polygon fill="#FFBB4D" points="26,31 31,31 31,33 26,33 26,31 		"/>
		<polygon fill="#FF4D4D" points="31,31 36,31 36,33 31,33 31,31 		"/>
		<polygon fill="#DF757D" points="36,31 41,31 41,33 36,33 36,31 		"/>
		<polygon fill="#F2F2F2" points="41,31 46,31 46,33 41,33 41,31 		"/>
		<polygon fill="#E6E6E6" points="46,31 51,31 51,33 46,33 46,31 		"/>
		<polygon fill="#8CC63F" points="11,33 16,33 16,35 11,35 11,33 		"/>
		<polygon fill="#4220D4" points="16,33 21,33 21,35 16,35 16,33 		"/>
		<polygon fill="#E6E6E6" points="21,33 26,33 26,35 21,35 21,33 		"/>
		<polygon fill="#DF757D" points="26,33 31,33 31,35 26,35 26,33 		"/>
		<polygon fill="#FFBB4D" points="31,33 36,33 36,35 31,35 31,33 		"/>
		<polygon fill="#4220D4" points="36,33 41,33 41,35 36,35 36,33 		"/>
		<polygon fill="#F2F2F2" points="41,33 46,33 46,35 41,35 41,33 		"/>
		<polygon fill="#8CC63F" points="46,33 51,33 51,35 46,35 46,33 		"/>
		<polygon fill="#4220D4" points="11,35 16,35 16,37 11,37 11,35 		"/>
		<polygon fill="#DF757D" points="16,35 21,35 21,37 16,37 16,35 		"/>
		<polygon fill="#FFBB4D" points="21,35 26,35 26,37 21,37 21,35 		"/>
		<polygon fill="#80B9FF" points="26,35 31,35 31,37 26,37 26,35 		"/>
		<polygon fill="#8CC63F" points="31,35 36,35 36,37 31,37 31,35 		"/>
		<polygon fill="#DF757D" points="36,35 41,35 41,37 36,37 36,35 		"/>
		<polygon fill="#F2F2F2" points="41,35 46,35 46,37 41,37 41,35 		"/>
		<polygon fill="#4220D4" points="46,35 51,35 51,37 46,37 46,35 		"/>
		<polygon fill="#E6E6E6" points="11,37 16,37 16,39 11,39 11,37 		"/>
		<polygon fill="#FFBB4D" points="16,37 21,37 21,39 16,39 16,37 		"/>
		<polygon fill="#E6E6E6" points="21,37 26,37 26,39 21,39 21,37 		"/>
		<polygon fill="#FFBB4D" points="26,37 31,37 31,39 26,39 26,37 		"/>
		<polygon fill="#4220D4" points="31,37 36,37 36,39 31,39 31,37 		"/>
		<polygon fill="#8CC63F" points="36,37 41,37 41,39 36,39 36,37 		"/>
		<polygon fill="#4220D4" points="41,37 46,37 46,39 41,39 41,37 		"/>
		<polygon fill="#E6E6E6" points="46,37 51,37 51,39 46,39 46,37 		"/>
		<polygon fill="#4220D4" points="11,39 16,39 16,41 11,41 11,39 		"/>
		<polygon fill="#FF4D4D" points="16,39 21,39 21,41 16,41 16,39 		"/>
		<polygon fill="#4220D4" points="21,39 26,39 26,41 21,41 21,39 		"/>
		<polygon fill="#4220D4" points="26,39 31,39 31,41 26,41 26,39 		"/>
		<polygon fill="#FF8080" points="31,39 36,39 36,41 31,41 31,39 		"/>
		<polygon fill="#FFBB4D" points="36,39 41,39 41,41 36,41 36,39 		"/>
		<polygon fill="#8CC63F" points="41,39 46,39 46,41 41,41 41,39 		"/>
		<polygon fill="#FFBB4D" points="46,39 51,39 51,41 46,41 46,39 		"/>
	</g>
	<path display="inline" fill="#C1272D" d="M63,29v-3h-1v-1h-1v-1h-1v-1h-1v-1h-1v-1h-4v-1H4v1H3v1H2v18h1v1h1v1h50v-1h4v-1h1v-1h1
		v-1h1v-1h1v-1h1v-3h1v-4H63L63,29z M62,34v1h-1v1h-1v1h-1v1h-1v1h-1v1h-4v1H5v-1H4v-1H3V23h1v-1h1v-1h48v1h4v1h1v1h1v1h1v1h1v1h1
		V34L62,34z"/>
	<polygon display="inline" opacity="0.2" points="9,25 9,23 4,23 4,24 3,24 3,40 4,40 4,41 9,41 9,39 10,39 10,25 9,25 	"/>
	<polygon display="inline" fill="#F2F2F2" points="10,24 10,22 5,22 5,23 4,23 4,39 5,39 5,40 10,40 10,38 11,38 11,24 10,24 	"/>
</g>
</svg>
