<?xml version="1.0" encoding="utf-8"?>
<!-- Generator: Adobe Illustrator 16.0.0, SVG Export Plug-In . SVG Version: 6.00 Build 0)  -->
<!DOCTYPE svg PUBLIC "-//W3C//DTD SVG 1.1//EN" "http://www.w3.org/Graphics/SVG/1.1/DTD/svg11.dtd">
<svg version="1.1" xmlns="http://www.w3.org/2000/svg" xmlns:xlink="http://www.w3.org/1999/xlink" x="0px" y="0px" width="64px"
	 height="64px" viewBox="0 0 64 64" enable-background="new 0 0 64 64" xml:space="preserve">
<g id="UK_Truck" >
	<polygon id="Cab_Color_3_" display="inline" opacity="0.2" points="61,29 59,29 59,28 58,28 58,29 53,29 53,39 58,39 58,40 59,40 
		59,39 61,39 61,37 62,37 62,31 61,31 61,29 	"/>
	<polygon id="container_color_3_" display="inline" opacity="0.2" points="13,29 13,39 52,39 52,29 13,29 	"/>
	<polygon id="Cab_Color_1_" display="inline" fill="#66BB53" points="63,27 61,27 61,26 60,26 60,27 55,27 55,37 60,37 60,38 61,38 
		61,37 63,37 63,35 64,35 64,29 63,29 63,27 	"/>
	<polygon id="shading_1_" display="inline" opacity="0.2" points="62,35 60,35 60,29 62,29 62,35 	"/>
	<g display="inline">
		<polygon id="container_color_1_" fill="#E67373" points="15,27 15,37 54,37 54,27 15,27 		"/>
		<g id="stripes_1_" opacity="0.2">
			<polygon points="53,27 53,37 54,37 54,27 53,27 53,27 			"/>
			<polygon points="51,27 51,37 52,37 52,27 51,27 51,27 			"/>
			<polygon points="49,27 49,37 50,37 50,27 49,27 49,27 			"/>
			<polygon points="47,27 47,37 48,37 48,27 47,27 47,27 			"/>
			<polygon points="45,27 45,37 46,37 46,27 45,27 45,27 			"/>
			<polygon points="43,27 43,37 44,37 44,27 43,27 43,27 			"/>
			<polygon points="41,27 41,37 42,37 42,27 41,27 41,27 			"/>
			<polygon points="39,27 39,37 40,37 40,27 39,27 39,27 			"/>
			<polygon points="37,27 37,37 38,37 38,27 37,27 37,27 			"/>
			<polygon points="35,27 35,37 36,37 36,27 35,27 35,27 			"/>
			<polygon points="33,27 33,37 34,37 34,27 33,27 33,27 			"/>
			<polygon points="31,27 31,37 32,37 32,27 31,27 31,27 			"/>
			<polygon points="29,27 29,37 30,37 30,27 29,27 29,27 			"/>
			<polygon points="27,27 27,37 28,37 28,27 27,27 27,27 			"/>
			<polygon points="25,27 25,37 26,37 26,27 25,27 25,27 			"/>
			<polygon points="23,27 23,37 24,37 24,27 23,27 23,27 			"/>
			<polygon points="21,27 21,37 22,37 22,27 21,27 21,27 			"/>
			<polygon points="19,27 19,37 20,37 20,27 19,27 19,27 			"/>
			<polygon points="17,27 17,37 18,37 18,27 17,27 17,27 			"/>
			<polygon points="15,27 15,37 16,37 16,27 15,27 15,27 			"/>
		</g>
		<g id="conners_1_" opacity="0.2">
			<polygon points="54,28 53,28 53,27 54,27 54,28 			"/>
			<polygon points="54,37 53,37 53,36 54,36 54,37 			"/>
			<polygon points="16,37 15,37 15,36 16,36 16,37 			"/>
			<polygon points="16,28 15,28 15,27 16,27 16,28 			"/>
		</g>
	</g>
</g>
</svg>
